<?xml version="1.0" standalone="no"?>
<!DOCTYPE svg PUBLIC "-//W3C//DTD SVG 20010904//EN"
 "http://www.w3.org/TR/2001/REC-SVG-20010904/DTD/svg10.dtd">
<svg version="1.0" xmlns="http://www.w3.org/2000/svg"
 width="356.000000pt" height="550.000000pt" viewBox="0 0 356.000000 550.000000"
 preserveAspectRatio="xMidYMid meet">

<g transform="translate(0.000000,550.000000) scale(0.100000,-0.100000)"
fill="#000000" stroke="none">
<path d="M490 5458 c0 -89 38 -211 134 -433 31 -71 70 -170 86 -220 26 -81 36
-125 55 -247 l6 -38 904 0 904 0 20 -26 c12 -15 21 -34 21 -44 0 -10 -9 -29
-21 -44 l-20 -26 -979 0 -978 0 -22 -45 c-20 -41 -21 -57 -18 -203 3 -155 4
-160 31 -199 25 -36 78 -72 130 -87 16 -5 18 -21 16 -208 -7 -710 -83 -1576
-193 -2200 l-13 -78 992 0 c667 0 1002 -3 1022 -10 29 -11 53 -45 53 -76 0 -8
-11 -26 -25 -39 l-24 -25 -1113 0 -1113 0 -40 -23 c-21 -12 -53 -42 -70 -65
-30 -43 -30 -45 -33 -189 -3 -118 0 -154 13 -190 21 -53 76 -109 117 -118 47
-11 28 -15 -79 -18 -118 -4 -169 -26 -218 -95 -29 -43 -30 -47 -33 -181 -2
-82 1 -154 8 -179 14 -53 63 -110 115 -133 38 -18 114 -19 1651 -19 1781 0
1649 -5 1717 65 47 48 57 92 57 246 0 155 -13 195 -76 247 l-39 32 -1052 0
-1052 0 -20 26 c-26 34 -27 68 -1 94 20 20 33 20 1024 20 l1004 0 6 23 c3 12
6 85 6 162 0 162 -12 201 -76 253 -38 31 -65 41 -132 46 -17 1 -36 6 -41 12
-12 13 -73 272 -115 494 -110 571 -186 1342 -186 1886 l0 164 -733 0 -734 0
-21 23 c-27 29 -28 71 -2 97 20 20 33 20 818 20 l798 0 22 39 c20 35 22 53 22
195 0 136 -3 162 -20 195 -22 44 -58 76 -109 97 l-33 14 7 77 c14 158 46 280
142 532 68 182 99 287 108 374 l7 67 -258 -2 -259 -3 0 -210 0 -210 -247 -3
-248 -2 0 215 0 215 -260 0 -260 0 0 -215 0 -215 -245 0 c-189 0 -245 3 -246
13 -1 6 -2 102 -3 212 l-1 200 -277 3 -278 2 0 -42z m1947 -2130 c48 -22 99
-76 120 -126 8 -19 14 -63 14 -98 0 -216 -248 -323 -411 -177 -62 56 -84 110
-78 197 11 177 191 281 355 204z"/>
</g>
</svg>
